#!OML:ASF E:\Steps\Project 1\Capture day 1\Session 2\Subject.ASF
:FULLY-SPECIFIED
:DEGREES
392
root -1.16338 18.0024 20.9552 -154.528 -0.995034 179.364
lowerback -24.5909 -1.90777 -8.50203
upperback -0.431618 -0.485316 0.354254
thorax 13.4277 -0.942153 5.09426
lowerneck 0.0666382 -3.03442 -0.800608
upperneck 25.7391 -7.85285 1.90274
head 8.05684 -4.71086 0.0871561
rclavicle 4.47266e-015 3.02153e-014
rhumerus -37.5846 -18.6727 -77.0477
rradius 26.1048
rwrist 1.20673
rhand -8.7925 -60.0185
rfingers 7.12502
rthumb 17.1462 630.718
lclavicle 4.47266e-015 3.02153e-014
lhumerus -27.867 -1.10514 83.9036
lradius 25.0907
lwrist -1.37131
lhand -22.3585 -12.6413
lfingers 7.12502
lthumb 4.06259 17.2997
rfemur -28.4092 8.02795 19.9439
rtibia 14.9831
rfoot -20.8265 -3.78155
rtoes -23.3656
lfemur -24.9731 -5.97693 -22.3274
ltibia 8.94989
lfoot -7.11319 -1.34032
ltoes -34.2691
393
root -1.16084 18.0009 20.9531 -154.475 -0.840808 179.369
lowerback -24.5794 -1.95511 -8.56074
upperback -0.463225 -0.535256 0.324116
thorax 13.3917 -0.967168 5.07472
lowerneck 0.037809 -2.95169 -0.772575
upperneck 25.7435 -7.76678 2.0032
head 8.06506 -4.66148 0.119937
rclavicle 2.38542e-015 -7.95139e-016
rhumerus -37.5769 -18.4828 -77.2275
rradius 26.3856
rwrist 0.940278
rhand -8.61042 -60.0283
rfingers 7.12502
rthumb 17.3214 630.724
lclavicle 2.38542e-015 -7.95139e-016
lhumerus -27.9353 -1.08129 83.7264
lradius 25.0286
lwrist -1.81588
lhand -22.3339 -12.6347
lfingers 7.12502
lthumb 4.08631 17.3059
rfemur -28.9287 8.0694 19.9425
rtibia 15.9243
rfoot -21.6725 -4.19238
rtoes -24.8908
lfemur -25.0174 -6.00196 -22.3133
ltibia 8.96537
lfoot -7.18999 -1.19304
ltoes -34.4409
394
root -1.15388 17.9971 20.9583 -154.309 -0.699161 179.374
lowerback -24.6104 -1.99753 -8.63437
upperback -0.535137 -0.57535 0.266522
thorax 13.3296 -0.987901 5.03509
lowerneck 0.177463 -2.88569 -0.532328
upperneck 25.6272 -7.65503 1.90395
head 7.98607 -4.59917 0.0624867
rclavicle 1.2921e-015 -8.74653e-015
rhumerus -37.5763 -18.5587 -77.3057
rradius 26.5379
rwrist 0.713623
rhand -8.28436 -60.1952
rfingers 7.12502
rthumb 17.6352 630.585
lclavicle 1.2921e-015 -8.74653e-015
lhumerus -28.0067 -1.31829 83.579
lradius 24.9167
lwrist -1.97425
lhand -22.4763 -12.6142
lfingers 7.12502
lthumb 3.94885 17.329
rfemur -29.6426 8.00445 19.9935
rtibia 16.9358
rfoot -22.3037 -4.68623
rtoes -26.9622
lfemur -25.2875 -5.7827 -22.3307
ltibia 9.12547
lfoot -7.32624 -1.31224
ltoes -34.8092
395
root -1.15304 18.0027 20.9511 -154.622 -0.468219 179.375
lowerback -24.3674 -1.99339 -8.69574
upperback -0.395952 -0.546064 0.235265
thorax 13.3561 -0.974485 5.04568
lowerneck 0.267692 -2.79388 -0.347394
upperneck 25.4521 -7.4636 1.76423
head 7.89494 -4.49927 0.00689572
rclavicle -6.16232e-015 -1.35174e-014
rhumerus -37.4874 -18.2446 -77.5763
rradius 26.8366
rwrist -0.4852
rhand -9.55282 -58.0015
rfingers 7.12502
rthumb 16.4142 632.673
lclavicle -6.16232e-015 -1.35174e-014
lhumerus -27.972 -1.56619 83.5517
lradius 24.8903
lwrist -1.64133
lhand -22.5312 -12.345
lfingers 7.12502
lthumb 3.89581 17.5991
rfemur -29.7764 7.84061 20.0453
rtibia 17.8839
rfoot -22.8226 -5.28794
rtoes -29.8641
lfemur -24.8353 -6.06154 -22.3082
ltibia 9.00797
lfoot -7.45105 -0.815855
ltoes -35.1574
396
root -1.14889 18.0047 20.9492 -154.67 -0.247847 179.394
lowerback -24.5872 -2.05555 -8.77699
upperback -0.146444 -0.54754 0.234544
thorax 13.7786 -0.997973 5.0921
lowerneck -0.092461 -2.76095 -0.411683
upperneck 25.4794 -7.39369 1.8331
head 7.97136 -4.44713 0.0337394
rclavicle -4.67144e-015 2.10712e-014
rhumerus -37.0262 -18.1963 -77.7262
rradius 27.0431
rwrist -0.108788
rhand -9.15671 -54.6422
rfingers 7.12502
rthumb 16.7956 636.064
lclavicle -4.67144e-015 2.10712e-014
lhumerus -27.6358 -1.57924 83.4964
lradius 24.9172
lwrist -1.33029
lhand -22.3957 -12.1455
lfingers 7.12502
lthumb 4.0267 17.7962
rfemur -30.27 7.96152 20.0299
rtibia 18.8913
rfoot -23.3664 -6.37959
rtoes -32.8435
lfemur -24.7201 -6.26407 -22.2413
ltibia 8.91882
lfoot -7.46443 -0.373245
ltoes -35.0258
397
root -1.14373 18.0035 20.9485 -154.628 0.0172042 179.396
lowerback -25.395 -2.11837 -8.81228
upperback 0.360215 -0.462194 0.138938
thorax 14.8316 -1.00619 5.03387
lowerneck -0.740601 -6.287 -0.557679
upperneck 25.7535 -6.54549 1.0858
head 8.13333 -2.15918 0.123461
rclavicle 8.05078e-015 3.81667e-014
rhumerus -36.0611 -18.3797 -78.1593
rradius 27.1683
rwrist 0.234039
rhand -8.2549 -55.4484
rfingers 7.12502
rthumb 17.6636 635.334
lclavicle 8.05078e-015 3.81667e-014
lhumerus -26.7555 -1.5487 83.2956
lradius 24.6809
lwrist -1.24136
lhand -22.4805 -12.3517
lfingers 7.12502
lthumb 3.9448 17.5916
rfemur -30.8419 8.11435 19.9528
rtibia 19.7863
rfoot -23.8927 -7.55065
rtoes -35.2418
lfemur -24.7488 -6.23562 -22.2541
ltibia 8.92745
lfoot -7.51707 -0.142679
ltoes -35.2068
398
root -1.13899 18.0037 20.9474 -154.668 0.216818 179.453
lowerback -25.3847 -2.51406 -8.73523
upperback 0.406075 -0.433678 0.160506
thorax 14.9126 -0.75706 5.08704
lowerneck -0.473397 -6.12577 -0.348259
upperneck 25.3539 -6.33982 0.94093
head 7.9338 -2.07896 0.0630031
rclavicle -7.25564e-015 -5.12864e-014
rhumerus -35.9543 -18.141 -78.3577
rradius 27.4783
rwrist 0.0728751
rhand -8.41502 -55.8932
rfingers 7.12502
rthumb 17.5095 634.875
lclavicle -7.25564e-015 -5.12864e-014
lhumerus -26.643 -1.40085 83.1747
lradius 24.3768
lwrist -1.30021
lhand -22.5677 -12.4229
lfingers 7.12502
lthumb 3.86059 17.5219
rfemur -31.247 7.88245 20.0201
rtibia 20.5393
rfoot -24.3774 -8.48175
rtoes -36.3465
lfemur -24.7279 -6.22646 -22.1888
ltibia 9.01353
lfoot -7.69726 0.055067
ltoes -35.5542
